cyclingleg_states
version=1
nRows=14
nColumns=49
inDegrees=yes

# SIMM Motion File Header:
name cyclingleg_states
datacolumns 49
datarows 14
otherdata 1
range 0.64652154 0.65181585
endheader
time	bb/crank_angle/value	bb/crank_angle/speed	spindle/pedal_angle_r/value	spindle/pedal_angle_r/speed	ground_pelvis/pelvis_tilt/value	ground_pelvis/pelvis_tilt/speed	ground_pelvis/pelvis_list/value	ground_pelvis/pelvis_list/speed	ground_pelvis/pelvis_rotation/value	ground_pelvis/pelvis_rotation/speed	ground_pelvis/pelvis_tx/value	ground_pelvis/pelvis_tx/speed	ground_pelvis/pelvis_ty/value	ground_pelvis/pelvis_ty/speed	ground_pelvis/pelvis_tz/value	ground_pelvis/pelvis_tz/speed	hip_r/hip_angle_r/value	hip_r/hip_angle_r/speed	hip_r/hip_adduction_r/value	hip_r/hip_adduction_r/speed	hip_r/hip_rotation_r/value	hip_r/hip_rotation_r/speed	knee_r/knee_angle_r/value	knee_r/knee_angle_r/speed	knee_r/tib_tx_r/value	knee_r/tib_tx_r/speed	knee_r/tib_ty_r/value	knee_r/tib_ty_r/speed	tib_pat_r/pat_angle_r/value	tib_pat_r/pat_angle_r/speed	tib_pat_r/pat_tx_r/value	tib_pat_r/pat_tx_r/speed	tib_pat_r/pat_ty_r/value	tib_pat_r/pat_ty_r/speed	ankle_r/ankle_angle_r/value	ankle_r/ankle_angle_r/speed	subtalar_r/subtalar_angle_r/value	subtalar_r/subtalar_angle_r/speed	mtp_r/mtp_angle_r/value	mtp_r/mtp_angle_r/speed	bifemlh_r/activation	bifemlh_r/fiber_length	bifemsh_r/activation	bifemsh_r/fiber_length	glut_max2_r/activation	glut_max2_r/fiber_length	vas_int_r/activation	vas_int_r/fiber_length
      0.64652154	   -547.82656941	  -1290.04384703	    554.20252413	    697.97638530	      0.00000000	     -0.00000000	      0.00000000	     -0.00000000	      0.00000000	     -0.00000000	     -0.10000000	      0.00000000	     -0.05000000	     -0.00000000	      0.00000000	      0.00000000	     37.60541558	    127.77058059	      4.37893010	      1.03513365	      1.30257983	    -56.42093554	    -53.43501610	   -643.62694280	      0.00424006	      0.06773406	     -0.47401565	     -0.18462866	     17.21582128	     22.80167261	      0.04471590	     -0.18210795	     -0.02316790	      0.02434466	     22.61603616	    -75.52434810	      0.00000000	      0.00000000	      0.00000000	      0.00000000	      0.02789820	      0.11873180	      0.02578776	      0.17015012	      0.02000526	      0.12808175	      0.02033800	      0.12377353
      0.64692879	   -548.35132979	  -1287.01150613	    554.48627251	    695.50752783	      0.00000000	     -0.00000000	      0.00000000	     -0.00000000	      0.00000000	     -0.00000000	     -0.10000000	      0.00000000	     -0.05000000	     -0.00000000	      0.00000000	      0.00000000	     37.65801829	    130.54276330	      4.37934535	      1.00396848	      1.27958443	    -56.50522231	    -53.69780307	   -646.86975617	      0.00426754	      0.06723078	     -0.47409114	     -0.18609308	     17.22504145	     22.47644370	      0.04464147	     -0.18338272	     -0.02315797	      0.02442334	     22.58549301	    -74.46612819	      0.00000000	      0.00000000	      0.00000000	      0.00000000	      0.02789820	      0.11862319	      0.02583733	      0.16999909	      0.02000524	      0.12811722	      0.02033618	      0.12400596
      0.64733605	   -548.87485293	  -1283.97476574	    554.76903686	    693.14686990	      0.00000000	     -0.00000000	      0.00000000	     -0.00000000	      0.00000000	     -0.00000000	     -0.10000000	      0.00000000	     -0.05000000	     -0.00000000	      0.00000000	      0.00000000	     37.71173257	    133.23069295	      4.37974773	      0.97198816	      1.25655765	    -56.57550136	    -53.96187493	   -649.94136571	      0.00429481	      0.06668534	     -0.47416722	     -0.18751231	     17.23412749	     22.14324994	      0.04456653	     -0.18461340	     -0.02314801	      0.02449613	     22.55538621	    -73.38229621	      0.00000000	      0.00000000	      0.00000000	      0.00000000	      0.02789820	      0.11851525	      0.02588691	      0.16984738	      0.02000521	      0.12815410	      0.02033437	      0.12418529
      0.64774330	   -549.39713575	  -1280.91416170	    555.05085958	    690.87907320	      0.00000000	     -0.00000000	      0.00000000	     -0.00000000	      0.00000000	     -0.00000000	     -0.10000000	      0.00000000	     -0.05000000	     -0.00000000	      0.00000000	      0.00000000	     37.76652461	    135.83540149	      4.38013694	      0.93922469	      1.23350509	    -56.63165005	    -54.22716247	   -652.83768766	      0.00432185	      0.06609781	     -0.47424387	     -0.18888455	     17.24307630	     21.80251423	      0.04449111	     -0.18579844	     -0.02313802	      0.02456295	     22.52572580	    -72.27386732	      0.00000000	      0.00000000	      0.00000000	      0.00000000	      0.02789820	      0.11840800	      0.02593649	      0.16969504	      0.02000518	      0.12819220	      0.02033257	      0.12441934
      0.64815056	   -549.91817075	  -1277.85382744	    555.33177873	    688.71254096	      0.00000000	     -0.00000000	      0.00000000	     -0.00000000	      0.00000000	     -0.00000000	     -0.10000000	      0.00000000	     -0.05000000	     -0.00000000	      0.00000000	      0.00000000	     37.82236134	    138.36231994	      4.38051265	      0.90574160	      1.21043226	    -56.67543160	    -54.49359656	   -655.57648523	      0.00434864	      0.06547055	     -0.47432106	     -0.19021430	     17.25188500	     21.45538026	      0.04441521	     -0.18694254	     -0.02312800	      0.02462453	     22.49652127	    -71.14423917	      0.00000000	      0.00000000	      0.00000000	      0.00000000	      0.02789820	      0.11830146	      0.02598606	      0.16954210	      0.02000515	      0.12823139	      0.02033078	      0.12459946
      0.64855781	   -550.43795665	  -1274.77350039	    555.61183390	    686.63191625	      0.00000000	     -0.00000000	      0.00000000	     -0.00000000	      0.00000000	     -0.00000000	     -0.10000000	      0.00000000	     -0.05000000	     -0.00000000	      0.00000000	      0.00000000	     37.87921151	    140.81210661	      4.38087458	      0.87156776	      1.18734414	    -56.70661637	    -54.76111345	   -658.15276530	      0.00437517	      0.06480357	     -0.47439879	     -0.19149952	     17.26055108	     21.10220039	      0.04433885	     -0.18804390	     -0.02311796	      0.02468077	     22.46778094	    -69.99418219	      0.00000000	      0.00000000	      0.00000000	      0.00000000	      0.02789820	      0.11819565	      0.02603564	      0.16938863	      0.02000512	      0.12827157	      0.02032900	      0.12483480
      0.64896507	   -550.95648747	  -1271.69724738	    555.89106036	    684.64592810	      0.00000000	     -0.00000000	      0.00000000	     -0.00000000	      0.00000000	     -0.00000000	     -0.10000000	      0.00000000	     -0.05000000	     -0.00000000	      0.00000000	      0.00000000	     37.93704451	    143.19009550	      4.38122246	      0.83676211	      1.16424562	    -56.72690765	    -55.02964910	   -660.58405706	      0.00440142	      0.06409915	     -0.47447704	     -0.19274474	     17.26907228	     20.74404218	      0.04426205	     -0.18910720	     -0.02310790	      0.02473238	     22.43951264	    -68.82683582	      0.00000000	      0.00000000	      0.00000000	      0.00000000	      0.02789820	      0.11809057	      0.02608522	      0.16923466	      0.02000510	      0.12831268	      0.02032723	      0.12501557
      0.64937232	   -551.47376337	  -1268.60416732	    556.16949502	    682.73926147	      0.00000000	     -0.00000000	      0.00000000	     -0.00000000	      0.00000000	     -0.00000000	     -0.10000000	      0.00000000	     -0.05000000	     -0.00000000	      0.00000000	      0.00000000	     37.99583145	    145.49658921	      4.38155605	      0.80135077	      1.14114108	    -56.73598012	    -55.29914472	   -662.86454429	      0.00442737	      0.06335723	     -0.47455578	     -0.19394772	     17.27744666	     20.38119481	      0.04418482	     -0.19013042	     -0.02309782	      0.02477920	     22.41172313	    -67.64275694	      0.00000000	      0.00000000	      0.00000000	      0.00000000	      0.02789821	      0.11798623	      0.02613480	      0.16908024	      0.02000507	      0.12835465	      0.02032546	      0.12525192
      0.64977958	   -551.98977963	  -1265.51824912	    556.44717053	    680.92094988	      0.00000000	     -0.00000000	      0.00000000	     -0.00000000	      0.00000000	     -0.00000000	     -0.10000000	      0.00000000	     -0.05000000	     -0.00000000	      0.00000000	      0.00000000	     38.05554398	    147.73682341	      4.38187509	      0.76538815	      1.11803487	    -56.73547995	    -55.56954099	   -665.01151470	      0.00445302	      0.06258002	     -0.47463500	     -0.19511298	     17.28567247	     20.01465278	      0.04410719	     -0.19111820	     -0.02308772	      0.02482195	     22.38441879	    -66.44484313	      0.00000000	      0.00000000	      0.00000000	      0.00000000	      0.02789821	      0.11788265	      0.02618437	      0.16892541	      0.02000504	      0.12839745	      0.02032371	      0.12543316
      0.65018683	   -552.50453759	  -1262.41809183	    556.72412126	    679.17576607	      0.00000000	     -0.00000000	      0.00000000	     -0.00000000	      0.00000000	     -0.00000000	     -0.10000000	      0.00000000	     -0.05000000	     -0.00000000	      0.00000000	      0.00000000	     38.11615544	    149.91076582	      4.38217939	      0.72889798	      1.09493087	    -56.72499699	    -55.84078365	   -667.01841355	      0.00447834	      0.06176742	     -0.47471470	     -0.19623810	     17.29374831	     19.64464915	      0.04402916	     -0.19206835	     -0.02307760	      0.02486043	     22.35760503	    -65.23346692	      0.00000000	      0.00000000	      0.00000000	      0.00000000	      0.02789821	      0.11777985	      0.02623395	      0.16877021	      0.02000502	      0.12844104	      0.02032197	      0.12567026
      0.65059409	   -553.01803352	  -1259.32759024	    557.00037740	    677.51302166	      0.00000000	     -0.00000000	      0.00000000	     -0.00000000	      0.00000000	     -0.00000000	     -0.10000000	      0.00000000	     -0.05000000	     -0.00000000	      0.00000000	      0.00000000	     38.17763955	    152.02355478	      4.38246872	      0.69193023	      1.07183292	    -56.70612321	    -56.11281767	   -668.90228249	      0.00450333	      0.06092155	     -0.47479484	     -0.19732760	     17.30167290	     19.27210862	      0.04395075	     -0.19298548	     -0.02306747	      0.02489534	     22.33128692	    -64.01130001	      0.00000000	      0.00000000	      0.00000000	      0.00000000	      0.02789821	      0.11767782	      0.02628353	      0.16861468	      0.02000499	      0.12848539	      0.02032023	      0.12585184
      0.65100134	   -553.53026973	  -1256.22496475	    557.27597093	    675.91761230	      0.00000000	     -0.00000000	      0.00000000	     -0.00000000	      0.00000000	     -0.00000000	     -0.10000000	      0.00000000	     -0.05000000	     -0.00000000	      0.00000000	      0.00000000	     38.23997167	    154.07484577	      4.38274291	      0.65450660	      1.04874442	    -56.67837385	    -56.38559297	   -670.65591003	      0.00452796	      0.06004227	     -0.47487542	     -0.19837890	     17.30944530	     18.89721478	      0.04387198	     -0.19386720	     -0.02305732	      0.02492644	     22.30546867	    -62.77855760	      0.00000000	      0.00000000	      0.00000000	      0.00000000	      0.02789821	      0.11757658	      0.02633311	      0.16845885	      0.02000496	      0.12853047	      0.02031851	      0.12608945
      0.65140860	   -554.04124332	  -1253.13394534	    557.55092972	    674.39907076	      0.00000000	     -0.00000000	      0.00000000	     -0.00000000	      0.00000000	     -0.00000000	     -0.10000000	      0.00000000	     -0.05000000	     -0.00000000	      0.00000000	      0.00000000	     38.30312744	    156.06967582	      4.38300177	      0.61667271	      1.02566879	    -56.64328720	    -56.65905844	   -672.29606136	      0.00455223	      0.05913163	     -0.47495641	     -0.19939650	     17.31706467	     18.52082514	      0.04379285	     -0.19471809	     -0.02304717	      0.02495441	     22.28015424	    -61.53769844	      0.00000000	      0.00000000	      0.00000000	      0.00000000	      0.02789821	      0.11747614	      0.02638268	      0.16830276	      0.02000493	      0.12857625	      0.02031679	      0.12627048
      0.65181585	   -554.55095709	  -1250.03050664	    557.82528339	    672.94138017	      0.00000000	     -0.00000000	      0.00000000	     -0.00000000	      0.00000000	     -0.00000000	     -0.10000000	      0.00000000	     -0.05000000	     -0.00000000	      0.00000000	      0.00000000	     38.36708406	    158.00716063	      4.38324514	      0.57844766	      1.00260903	    -56.60022410	    -56.93316765	   -673.81388063	      0.00457612	      0.05818936	     -0.47503782	     -0.20037736	     17.32453049	     18.14305161	      0.04371338	     -0.19553532	     -0.02303700	      0.02497896	     22.25534676	    -60.28871052	      0.00000000	      0.00000000	      0.00000000	      0.00000000	      0.02789821	      0.11737650	      0.02643226	      0.16814645	      0.02000491	      0.12862271	      0.02031509	      0.12650657
